<svg width="50" height="50" viewBox="0 0 50 50" fill="none" xmlns="http://www.w3.org/2000/svg">
<path d="M31.25 1.5625H4.6875C3.39308 1.5625 2.34375 2.61183 2.34375 3.90625V46.0938C2.34375 47.3882 3.39308 48.4375 4.6875 48.4375H31.25C32.5444 48.4375 33.5938 47.3882 33.5938 46.0938V3.90625C33.5938 2.61183 32.5444 1.5625 31.25 1.5625Z" stroke="black" stroke-width="2" stroke-linecap="round" stroke-linejoin="round"/>
<path d="M27.3438 6.25H8.59375C7.73081 6.25 7.03125 6.94956 7.03125 7.8125V19.5312C7.03125 20.3942 7.73081 21.0938 8.59375 21.0938H27.3438C28.2067 21.0938 28.9062 20.3942 28.9062 19.5312V7.8125C28.9062 6.94956 28.2067 6.25 27.3438 6.25Z" stroke="black" stroke-width="2" stroke-linecap="round" stroke-linejoin="round"/>
<path d="M15.625 14.8438C15.625 15.4654 15.3781 16.0615 14.9385 16.501C14.499 16.9406 13.9029 17.1875 13.2812 17.1875C12.6596 17.1875 12.0635 16.9406 11.624 16.501C11.1844 16.0615 10.9375 15.4654 10.9375 14.8438V12.5C10.9375 11.8784 11.1844 11.2823 11.624 10.8427C12.0635 10.4032 12.6596 10.1563 13.2812 10.1562C13.9029 10.1562 14.499 10.4032 14.9385 10.8427C15.3781 11.2823 15.625 11.8784 15.625 12.5V14.8438Z" stroke="black" stroke-width="2" stroke-linecap="round" stroke-linejoin="round"/>
<path d="M25 14.8438C25 15.4654 24.7531 16.0615 24.3135 16.501C23.874 16.9406 23.2779 17.1875 22.6562 17.1875C22.0346 17.1875 21.4385 16.9406 20.999 16.501C20.5594 16.0615 20.3125 15.4654 20.3125 14.8438V12.5C20.3125 11.8784 20.5594 11.2823 20.999 10.8427C21.4385 10.4032 22.0346 10.1563 22.6562 10.1562C23.2779 10.1562 23.874 10.4032 24.3135 10.8427C24.7531 11.2823 25 11.8784 25 12.5V14.8438Z" stroke="black" stroke-width="2" stroke-linecap="round" stroke-linejoin="round"/>
<path d="M17.9688 17.9688C18.4002 17.9688 18.75 17.619 18.75 17.1875C18.75 16.756 18.4002 16.4062 17.9688 16.4062C17.5373 16.4062 17.1875 16.756 17.1875 17.1875C17.1875 17.619 17.5373 17.9688 17.9688 17.9688Z" fill="black"/>
<path d="M14.8438 34.7876C14.1362 35.4205 13.6374 36.2533 13.4135 37.1759C13.1896 38.0984 13.2511 39.0672 13.5898 39.9541C13.9286 40.8409 14.5286 41.604 15.3105 42.1423C16.0925 42.6807 17.0194 42.969 17.9688 42.969C18.9181 42.969 19.845 42.6807 20.627 42.1423C21.4089 41.604 22.0089 40.8409 22.3477 39.9541C22.6864 39.0672 22.7479 38.0984 22.524 37.1759C22.3001 36.2533 21.8013 35.4205 21.0938 34.7876" stroke="black" stroke-width="2" stroke-linecap="round" stroke-linejoin="round"/>
<path d="M17.9688 32.8125V38.2812" stroke="black" stroke-width="2" stroke-linecap="round" stroke-linejoin="round"/>
<path d="M37.5 7.03125V14.0625" stroke="black" stroke-width="2" stroke-linecap="round" stroke-linejoin="round"/>
<path d="M37.5 7.8125H47.6562V13.2812H37.5" stroke="black" stroke-width="2" stroke-linecap="round" stroke-linejoin="round"/>
<path d="M37.5 8.59375H33.5938" stroke="black" stroke-width="2" stroke-linecap="round" stroke-linejoin="round"/>
<path d="M37.5 12.5H33.5938" stroke="black" stroke-width="2" stroke-linecap="round" stroke-linejoin="round"/>
</svg>
